{"title":"Zoo S0212 1080p AMZN WEBRip HEVC DD5.1 x265","uid":15792133,"size":755927083,"categoryP":"video","categoryS":"hd___tv_shows","magnet":"?xt=urn:btih:309f5b33a7ddb4aec8a3347e189cc920795f43b5&amp;dn=Zoo+S0212+1080p+AMZN+WEBRip+HEVC+DD5.1+x265&amp;tr=udp%3A%2F%2Ftracker.leechers-paradise.org%3A6969&amp;tr=udp%3A%2F%2Fzer0day.ch%3A1337&amp;tr=udp%3A%2F%2Fopen.demonii.com%3A1337&amp;tr=udp%3A%2F%2Ftracker.coppersurfer.tk%3A6969&amp;tr=udp%3A%2F%2Fexodus.desync.com%3A6969","seeders":2,"leechers":2,"uploader":"nayhtut","files":1,"time":1473392627,"description":"Source:  Zoo S02E12 1080p AMZN WEBRip DD5.1 x264-KiNGS (1.61 GB)\r\n\r\n\r\nComplete name                : Zoo.S02E12.1080p.AMZN.WEBRip.HEVC.DD5.1.x265.mkv\r\nFormat                                   : Matroska\r\nFormat version                           : Version 4 / Version 2\r\nFile size                                : 721 MiB\r\nDuration                                 : 43mn 15s\r\nOverall bit rate                         : 2 330 Kbps\r\nWriting application                      : Lavf57.25.100\r\nWriting library                          : Lavf57.25.100\r\n\r\nVideo\r\n\r\nID                                       : 1\r\nFormat                                   : V_MPEGH/ISO/HEVC\r\nCodec ID                                 : V_MPEGH/ISO/HEVC\r\nDuration                                 : 43mn 15s\r\nBit rate                                 : 1 899 Kbps\r\nWidth                                    : 1 920 pixels\r\nHeight                                   : 1 080 pixels\r\nDisplay aspect ratio                     : 16:9\r\nFrame rate                               : 25.000 fps\r\nBits/(Pixel*Frame)                       : 0.037\r\nStream size                              : 588 MiB (82%)\r\nWriting library                          : Lavc57.48.101 libx265\r\nLanguage                                 : English\r\nDefault                                  : Yes\r\nForced                                   : No\r\nDURATION                                 : 00:43:15.731000000\r\n\r\nAudio\r\n\r\nID                                       : 2\r\nFormat                                   : AC-3\r\nFormat/Info                              : Audio Coding 3\r\nMode extension                           : CM (complete main)\r\nFormat settings, Endianness              : Big\r\nCodec ID                                 : A_AC3\r\nDuration                                 : 43mn 15s\r\nBit rate mode                            : Constant\r\nBit rate                                 : 384 Kbps\r\nChannel(s)                               : 6 channels\r\nChannel positions                        : Front: L C R, Side: L R, LFE\r\nSampling rate                            : 48.0 KHz\r\nBit depth                                : 16 bits\r\nCompression mode                         : Lossy\r\nStream size                              : 119 MiB (16%)\r\nWriting library                          : Lavc57.24.102 ac3\r\nLanguage                                 : English\r\nDefault                                  : Yes\r\nForced                                   : No\r\nDURATION                                 : 00:43:15.743000000\r\n\r\nText\r\n\r\nID                                       : 3\r\nFormat                                   : ASS\r\nCodec ID                                 : S_TEXT/ASS\r\nCodec ID/Info                            : Advanced Sub Station Alpha\r\nCompression mode                         : Lossless\r\nWriting library                          : Lavc57.48.101 ssa\r\nLanguage                                 : English","torrent":{"xt":"urn:btih:309f5b33a7ddb4aec8a3347e189cc920795f43b5","amp;dn":"Zoo+S0212+1080p+AMZN+WEBRip+HEVC+DD5.1+x265","amp;tr":["udp%3A%2F%2Ftracker.leechers-paradise.org%3A6969","udp%3A%2F%2Fzer0day.ch%3A1337","udp%3A%2F%2Fopen.demonii.com%3A1337","udp%3A%2F%2Ftracker.coppersurfer.tk%3A6969","udp%3A%2F%2Fexodus.desync.com%3A6969"],"infoHash":"309f5b33a7ddb4aec8a3347e189cc920795f43b5","infoHashBuffer":{"type":"Buffer","data":[48,159,91,51,167,221,180,174,200,163,52,126,24,156,201,32,121,95,67,181]},"announce":[],"urlList":[]}}